<?xml version="1.0" standalone="no"?><!DOCTYPE svg PUBLIC "-//W3C//DTD SVG 1.1//EN" "http://www.w3.org/Graphics/SVG/1.1/DTD/svg11.dtd"><svg t="1782267241383" class="icon" viewBox="0 0 1024 1024" version="1.1" xmlns="http://www.w3.org/2000/svg" p-id="7372" xmlns:xlink="http://www.w3.org/1999/xlink" width="200" height="200"><path d="M380.541 469.321l-45.839 159.116h-51.587l-23.463-93.23c-1.554-6.217-2.435-13-2.642-20.357h-0.932c-0.726 8.08-1.763 14.662-3.108 19.736l-25.172 93.852H176.83l-44.907-159.116h50.034l21.91 103.8c1.033 4.871 1.811 10.773 2.331 17.713h0.932c0.517-7.248 1.449-13.363 2.796-18.336l27.349-103.177h46.771l24.551 103.8c0.621 2.592 1.344 8.598 2.175 18.025h1.087a178.766 178.766 0 0 1 2.486-18.025l20.667-103.8h45.529zM634.285 469.321l-45.839 159.116h-51.589l-23.462-93.229c-1.555-6.219-2.436-13.002-2.642-20.359h-0.933c-0.725 8.08-1.762 14.662-3.107 19.736l-25.173 93.852h-50.966l-44.906-159.116h50.035l21.909 103.8c1.034 4.871 1.811 10.773 2.331 17.713h0.933c0.516-7.248 1.45-13.363 2.796-18.336l27.349-103.177h46.771l24.549 103.8c0.623 2.592 1.347 8.598 2.177 18.025h1.088a178.484 178.484 0 0 1 2.487-18.025l20.665-103.8h45.527zM888.028 469.321L842.19 628.436h-51.588l-23.464-93.227c-1.554-6.219-2.434-13.002-2.642-20.359h-0.933c-0.724 8.08-1.762 14.662-3.107 19.736l-25.173 93.852h-50.966L639.41 469.321h50.037l21.907 103.8c1.036 4.871 1.813 10.773 2.332 17.713h0.933c0.517-7.248 1.449-13.363 2.795-18.336l27.351-103.177h46.77l24.551 103.8c0.623 2.592 1.347 8.598 2.179 18.025h1.086a178.757 178.757 0 0 1 2.484-18.025l20.665-103.8h45.528z" fill="#040000" p-id="7373"></path><path d="M278.8 404.664a5 5 0 0 1-4.734-6.612c29.035-85.348 109.15-142.69 199.356-142.69a5 5 0 0 1 0 10c-85.922 0-162.233 54.619-189.889 135.911a5.002 5.002 0 0 1-4.733 3.391z" fill="#231815" p-id="7374"></path><path d="M507.462 895.07c-143.744 0-273.605-85.218-330.837-217.103-4.397-10.133 0.253-21.912 10.386-26.309 10.131-4.396 21.911 0.252 26.309 10.385 50.884 117.26 166.341 193.027 294.142 193.027 127.317 0 242.602-75.369 293.7-192.013 4.432-10.116 16.226-14.729 26.345-10.294 10.117 4.433 14.727 16.228 10.294 26.345C780.328 810.3 650.662 895.07 507.462 895.07zM186 442.1c-2.192 0-4.42-0.363-6.606-1.128-10.426-3.648-15.92-15.057-12.272-25.483 24.459-69.902 69.272-129.861 129.592-173.395 61.631-44.48 134.506-67.991 210.748-67.991 75.945 0 148.589 23.344 210.077 67.508 60.165 43.214 105.016 102.791 129.702 172.29 3.697 10.409-1.744 21.844-12.152 25.541-10.409 3.695-21.844-1.743-25.541-12.152-45.293-127.513-166.691-213.186-302.086-213.186-136.071 0-257.67 86.24-302.584 214.597C201.994 436.94 194.263 442.1 186 442.1z" fill="#040000" p-id="7375"></path></svg>