<?xml version="1.0" standalone="no"?><!DOCTYPE svg PUBLIC "-//W3C//DTD SVG 1.1//EN" "http://www.w3.org/Graphics/SVG/1.1/DTD/svg11.dtd"><svg t="1782267299509" class="icon" viewBox="0 0 1024 1024" version="1.1" xmlns="http://www.w3.org/2000/svg" p-id="12302" xmlns:xlink="http://www.w3.org/1999/xlink" width="200" height="200"><path d="M425.984 893.994667l0-84.010667q-34.005333 0-59.008-25.002667t-25.002667-59.008l0-43.989333-205.994667-203.989333q-8.021333 32-8.021333 75.989333 0 130.005333 86.016 226.986667t212.010667 112.981333zM808.021333 512l86.016 0q2.005333 13.994667 2.005333 41.984 0 178.005333-125.013333 303.018667t-301.013333 125.013333q-178.005333 0-303.018667-125.013333t-125.013333-303.018667q0-176 125.013333-301.013333t303.018667-125.013333q61.994667 0 128 20.010667l0 107.989333q0 34.005333-25.984 59.989333t-59.989333 25.984l-86.016 0 0 84.010667q0 18.005333-11.989333 31.018667t-29.994667 13.013333l-86.016 0 0 84.010667 256 0q18.005333 0 31.018667 13.013333t13.013333 31.018667l0 128 41.984 0q61.994667 0 82.005333 57.984 88.021333-93.994667 88.021333-230.016 0-27.989333-2.005333-41.984zM904.021333 169.984l0-20.010667q0-29.994667-20.992-52.010667t-50.986667-22.016-50.986667 22.016-20.992 52.010667l0 20.010667 144 0zM937.984 169.984q18.005333 0 31.018667 13.013333t13.013333 31.018667l0 169.984q0 18.005333-13.013333 29.994667t-31.018667 11.989333l-212.010667 0q-18.005333 0-31.018667-11.989333t-13.013333-29.994667l0-169.984q0-18.005333 13.013333-31.018667t31.018667-13.013333l0-20.010667q0-43.989333 31.018667-75.989333t75.008-32 75.008 32 31.018667 75.989333l0 20.010667z" fill="#444444" p-id="12303"></path></svg>